<svg width="20" height="30" viewBox="0 0 20 30" fill="none" xmlns="http://www.w3.org/2000/svg">
<path d="M11.7468 6.25C12.5598 7.38815 12.9968 8.75188 12.9968 10.1506V11.5C13.4253 11.5 13.8414 11.3568 14.1791 11.0931C14.5168 10.8294 14.7567 10.4605 14.8606 10.0448L14.9968 9.5L15.3663 9.9434C15.9621 10.6583 16.2854 11.561 16.2789 12.4915C16.2725 13.4221 15.9367 14.3202 15.3311 15.0268C15.1041 15.2915 14.9855 15.6322 14.9988 15.9806C15.0122 16.3291 15.1565 16.6596 15.4031 16.9062C15.5407 17.0439 15.7059 17.151 15.8877 17.2205C16.0696 17.29 16.2641 17.3203 16.4584 17.3096C16.6528 17.2988 16.8427 17.2471 17.0158 17.158C17.1889 17.0688 17.3412 16.9441 17.4628 16.7921L18.4968 15.5L19.4968 18C19.9503 19.5115 19.986 21.1177 19.6002 22.6479C19.2144 24.1781 18.4215 25.5753 17.3056 26.6912L17.1795 26.8173C15.4619 28.535 13.1322 29.5 10.7031 29.5H9.6828C8.1011 29.5 6.5464 29.0904 5.17 28.3111C3.79359 27.5318 2.64247 26.4094 1.8287 25.0531C0.854282 23.4291 0.407262 21.5429 0.549202 19.6542C0.691142 17.7656 1.41505 15.9674 2.62127 14.5072L6.669 9.6073C7.0679 9.1244 7.3242 8.53994 7.4093 7.91945C7.4943 7.29897 7.4046 6.66707 7.1503 6.09475C6.8276 5.36877 6.7719 4.55208 6.9932 3.78904C7.2144 3.026 7.6983 2.36575 8.3593 1.925L10.4968 0.5V2.34944C10.4968 3.74812 10.9339 5.11185 11.7468 6.25Z" fill="url(#paint0_linear_1_15)"/>
<defs>
<linearGradient id="paint0_linear_1_15" x1="10.1944" y1="0.5" x2="10.1944" y2="29.5" gradientUnits="userSpaceOnUse">
<stop stop-color="#FF9159"/>
<stop offset="0.6875" stop-color="#FF7631"/>
<stop offset="1" stop-color="#FF6A1F"/>
</linearGradient>
</defs>
</svg>
